<svg xmlns="http://www.w3.org/2000/svg" viewBox="0 0 141.12 141.2">
  <defs>
    <style>.a{fill:#009789}.b{fill:none;stroke:#005a51;stroke-miterlimit:10;stroke-width:6.12px}.c{fill:#005a51}.d{fill:#fff}</style>
  </defs>
  <title>mutoon-online-logo</title>
  <circle class="a" cx="70.56" cy="69.68" r="69.44"/>
  <circle class="b" cx="70.56" cy="70.56" r="67.5"/>
  <path class="a" d="M111.15 70a18.68 18.68 0 0 1-1.63 7.78q-2.12 4.57-5.87 4.57H49.43v32.88H36.95a6.57 6.57 0 0 1-4.7-2.37 6.9 6.9 0 0 1-2.25-4.64V79.43q0-11.79 9.2-14.84 3.5-1.12 19.13-1.44Q59.85 48.47 71.5 38q4.15-3.69 11.4-4.49l13.35-1.44a31.52 31.52 0 0 0 14.9-8zm-16.61-6.9V47.75a17.72 17.72 0 0 0-5-.8 14.05 14.05 0 0 0-10.14 4.37 13.65 13.65 0 0 0-4.44 10q0 .88.08 1.84z"/>
  <path class="d" d="M111.15 70a18.68 18.68 0 0 1-1.63 7.78q-2.12 4.57-5.87 4.57H49.43v32.88H36.95a6.57 6.57 0 0 1-4.7-2.37 6.9 6.9 0 0 1-2.25-4.64V79.43q0-11.79 9.2-14.84 3.5-1.12 19.13-1.44Q59.85 48.47 71.5 38q4.15-3.69 11.4-4.49l13.35-1.44a31.52 31.52 0 0 0 14.9-8zm-16.61-6.9V47.75a17.72 17.72 0 0 0-5-.8 14.05 14.05 0 0 0-10.14 4.37 13.65 13.65 0 0 0-4.44 10q0 .88.08 1.84z"/>
</svg>